<?xml version="1.0" standalone="no"?>
<!DOCTYPE svg PUBLIC "-//W3C//DTD SVG 20010904//EN"
 "http://www.w3.org/TR/2001/REC-SVG-20010904/DTD/svg10.dtd">
<svg version="1.0" xmlns="http://www.w3.org/2000/svg"
 width="310.000000pt" height="310.000000pt" viewBox="0 0 310.000000 310.000000"
 preserveAspectRatio="xMidYMid meet">
<metadata>
Created by potrace 1.14, written by Peter Selinger 2001-2017
</metadata>
<g transform="translate(0.000000,310.000000) scale(0.100000,-0.100000)"
fill="#000000" stroke="none">
<path d="M1811 2989 c-156 -145 -305 -218 -418 -205 -93 11 -239 73 -350 148
-23 15 -46 28 -51 28 -6 0 -15 -30 -22 -67 -29 -168 -108 -340 -182 -396 -78
-60 -211 -98 -385 -112 -46 -4 -83 -10 -83 -14 0 -3 18 -47 40 -96 55 -126 74
-205 75 -305 0 -121 -35 -190 -159 -315 -50 -50 -107 -104 -126 -118 -29 -23
-32 -29 -20 -37 8 -6 57 -36 109 -68 122 -75 213 -162 248 -238 45 -98 43
-235 -4 -426 -10 -37 -14 -70 -11 -73 3 -4 56 -2 116 4 139 13 302 -3 302 -29
0 -4 -88 -149 -196 -321 -108 -173 -200 -322 -206 -332 -8 -17 -3 -18 82 -15
l92 3 177 285 c97 157 183 286 191 287 8 2 30 -18 48 -42 32 -44 115 -208 139
-274 l12 -34 51 44 c227 196 340 244 491 209 66 -15 216 -85 288 -134 29 -20
56 -36 60 -36 4 0 12 32 19 72 27 156 96 313 169 383 68 65 212 111 386 122
53 3 97 10 97 15 0 6 -14 40 -31 76 -64 138 -82 209 -83 322 -1 98 1 109 28
157 42 76 123 169 210 242 41 35 73 67 71 71 -3 4 -24 18 -47 30 -139 72 -277
191 -316 271 -48 99 -48 245 -1 427 12 45 20 84 18 87 -2 2 -40 -1 -84 -7 -99
-12 -274 -4 -338 16 -69 22 -133 70 -183 138 -45 61 -112 190 -137 262 -8 22
-18 41 -23 43 -5 1 -33 -21 -63 -48z m-18 -443 c213 -54 421 -194 547 -367
284 -391 255 -915 -71 -1263 -71 -76 -175 -160 -188 -152 -4 3 -21 40 -36 83
-35 99 -64 158 -130 259 -71 109 -176 227 -263 294 -39 30 -71 61 -71 69 -1 8
20 48 45 89 26 40 47 85 47 100 0 33 -45 72 -82 72 -33 0 -54 -21 -111 -112
-23 -38 -44 -68 -46 -68 -3 0 -22 9 -44 20 -204 104 -489 153 -742 126 l-78
-8 0 34 c0 44 32 166 65 246 82 201 269 404 460 500 89 44 191 78 275 92 41 6
82 13 90 15 43 11 245 -7 333 -29z"/>
</g>
</svg>
