<svg width="1366" height="273" viewBox="0 0 1366 273" fill="none" xmlns="http://www.w3.org/2000/svg">
<path fill-rule="evenodd" clip-rule="evenodd" d="M653.544 273C663.408 273 673.228 272.963 683 272.889C692.772 272.963 702.592 273 712.456 273C990.854 273 1234.14 243.344 1365.52 199.175H1366V42H683H683H0V199.175H0.475235C131.865 243.344 375.146 273 653.544 273Z" fill="#F95D62"/>
<path fill-rule="evenodd" clip-rule="evenodd" d="M653.544 255C663.408 255 673.228 254.963 683 254.889C692.772 254.963 702.592 255 712.456 255C990.854 255 1234.14 225.344 1365.52 181.175H1366V24H683H683H0V181.175H0.475235C131.865 225.344 375.146 255 653.544 255Z" fill="white"/>
<rect width="1366" height="149" fill="white"/>
</svg>
