<svg width="542" height="183" viewBox="0 0 542 183" fill="none" xmlns="http://www.w3.org/2000/svg">
<mask id="path-1-outside-1" maskUnits="userSpaceOnUse" x="0" y="0" width="542" height="98" fill="black">
<rect fill="white" width="542" height="98"/>
<path fill-rule="evenodd" clip-rule="evenodd" d="M100.254 22.0263C100.254 17.1371 104.861 13 109.75 13C114.639 13 118.306 17.1371 118.306 22.0263V57.3791C118.306 72.5169 106.177 84.4578 91.1334 84.4578C76.0897 84.4578 64.1487 72.5169 64.1487 57.3791V22.0263C64.1487 17.1371 68.0977 13 72.9869 13C77.8761 13 82.2012 17.1371 82.2012 22.0263V57.3791C82.2012 62.7384 85.7741 66.8754 91.1334 66.8754C96.4927 66.8754 100.254 62.7384 100.254 57.3791V22.0263ZM166.822 84.4578C161.933 84.4578 157.984 80.5088 157.984 75.6196L157.951 40.3608C157.951 35.0015 153.565 30.5824 148.206 30.5824C142.846 30.5824 138.864 35.0015 138.864 40.3608L138.897 75.6196C138.897 80.5088 134.948 84.4578 130.059 84.4578C125.17 84.4578 121.315 80.5088 121.315 75.6196L121.221 40.3608C121.221 25.2231 133.162 13 148.206 13C163.249 13 175.472 25.2231 175.472 40.3608L175.566 75.6196C175.566 80.5088 171.711 84.4578 166.822 84.4578ZM256.697 21.5562C256.697 16.761 260.563 13.0001 265.359 13.0001C270.248 13.0001 274.28 16.761 274.28 21.5562L274.291 75.6196C274.291 80.5088 270.342 84.4578 265.453 84.4578C260.657 84.4578 256.708 80.5088 256.708 75.6196V60.3878H247.118V75.6196C247.118 80.5088 243.169 84.4578 238.28 84.4578C233.391 84.4578 229.536 80.5088 229.536 75.6196L229.525 21.6502C229.525 16.855 233.391 13.0001 238.28 13.0001C243.169 13.0001 247.107 16.855 247.107 21.6502L247.118 43.2756H256.708L256.697 21.5562ZM392.137 78.3463C387.812 82.0132 382.265 84.1757 376.247 84.1757C362.614 84.1757 351.613 73.081 351.613 59.5416L351.484 21.8383C351.484 16.949 355.433 13.0001 360.228 13.0001C365.117 13.0001 369.066 16.949 369.066 21.8383L369.196 59.5416C369.196 63.3966 372.392 66.5934 376.247 66.5934C380.102 66.5934 383.299 63.3966 383.299 59.5416L383.17 21.8383C383.17 16.949 387.119 13.0001 392.008 13.0001C396.803 13.0001 400.752 16.949 400.752 21.8383L400.881 59.5416C400.881 63.3966 404.078 66.5934 407.933 66.5934C411.882 66.5934 414.668 63.4906 414.668 59.6357V22.0263C414.668 17.1371 418.805 13.0001 423.694 13.0001C428.489 13.0001 432.72 17.1371 432.72 22.0263L432.567 59.5416C432.567 73.081 421.567 84.1757 407.933 84.1757C401.916 84.1757 396.368 82.0132 392.137 78.3463ZM470.612 67.2515H453.405V60.3878H470.483C475.372 60.3878 479.356 57.003 479.356 52.1138C479.356 47.2246 475.372 43.4636 470.483 43.4636H453.405V30.6764H470.612C475.407 30.6764 479.356 26.7275 479.356 21.8383C479.356 17.0431 475.278 13.0001 470.483 13.0001H444.721C439.831 13.0001 435.729 17.0431 435.729 21.8383L435.823 75.6196C435.823 80.5088 439.772 84.4578 444.661 84.4578H470.706C475.501 84.4578 479.356 80.6969 479.356 75.8077C479.356 70.9185 475.407 67.2515 470.612 67.2515ZM521.419 36.694C521.419 38.7625 521.137 40.6429 520.666 42.6174C525.838 47.0365 529 53.1481 529 60.3878V75.8077C529 80.6969 525.145 84.4578 520.35 84.4578C515.461 84.4578 511.324 80.6969 511.324 75.8077V60.3878H499.773L499.665 75.8077C499.665 80.6969 495.904 84.4578 491.015 84.4578C486.125 84.4578 482.364 80.6969 482.364 75.8077V21.6502C482.364 19.2997 483.211 17.1371 484.903 15.4447C486.595 13.8463 488.664 13.0001 491.015 13.0001H497.784C510.665 13.0001 521.419 23.7187 521.419 36.694ZM205.742 41.5832H205.559C200.595 41.5832 197.285 41.2878 197.285 36.3179C197.285 31.348 200.595 31.0526 205.559 31.0526H218.347C222.875 31.0526 226.621 26.5603 226.621 22.0263C226.621 17.4924 222.875 13.0001 218.347 13.0001L203.828 13.0001C189.805 13.0001 178.481 23.3212 178.481 37.2718C178.481 51.2224 189.803 59.6357 203.825 59.6357H207.24C211.616 59.6362 213.081 59.68 213.081 63.0205C213.081 66.4053 211.577 66.4053 207.064 66.4053H186.755C182.217 66.4053 178.481 70.9185 178.481 75.5125C178.481 80.1065 182.145 84.4576 186.683 84.4576L205.742 84.4576C219.79 84.4576 226.621 74.2959 226.621 63.0026C226.621 51.7092 219.79 41.5832 205.742 41.5832ZM312.746 84.4578C332.479 84.4578 348.475 68.4615 348.475 48.729C348.475 28.9964 332.479 13.0001 312.746 13.0001C293.014 13.0001 277.017 28.9964 277.017 48.729C277.017 68.4615 293.014 84.4578 312.746 84.4578ZM40.2612 41.5832H40.0787C35.1143 41.5832 31.8047 41.2878 31.8047 36.3179C31.8047 31.348 35.1143 31.0526 40.0787 31.0526H52.8659C57.3948 31.0526 61.1399 26.5603 61.1399 22.0264C61.1399 17.4924 57.3948 13.0001 52.8659 13.0001L38.3471 13.0001C24.3248 13.0001 13 23.3212 13 37.2718C13 51.2224 24.3223 59.6357 38.3447 59.6357H41.759C46.1354 59.6363 47.6006 59.6801 47.6006 63.0205C47.6006 66.4054 46.0962 66.4054 41.5831 66.4054H21.2741C16.7367 66.4054 13 70.9185 13 75.5125C13 80.1065 16.6648 84.4576 21.2022 84.4576L40.2612 84.4576C54.3096 84.4576 61.1399 74.2959 61.1399 63.0026C61.1399 51.7093 54.3096 41.5832 40.2612 41.5832Z"/>
</mask>
<path fill-rule="evenodd" clip-rule="evenodd" d="M100.254 22.0263C100.254 17.1371 104.861 13 109.75 13C114.639 13 118.306 17.1371 118.306 22.0263V57.3791C118.306 72.5169 106.177 84.4578 91.1334 84.4578C76.0897 84.4578 64.1487 72.5169 64.1487 57.3791V22.0263C64.1487 17.1371 68.0977 13 72.9869 13C77.8761 13 82.2012 17.1371 82.2012 22.0263V57.3791C82.2012 62.7384 85.7741 66.8754 91.1334 66.8754C96.4927 66.8754 100.254 62.7384 100.254 57.3791V22.0263ZM166.822 84.4578C161.933 84.4578 157.984 80.5088 157.984 75.6196L157.951 40.3608C157.951 35.0015 153.565 30.5824 148.206 30.5824C142.846 30.5824 138.864 35.0015 138.864 40.3608L138.897 75.6196C138.897 80.5088 134.948 84.4578 130.059 84.4578C125.17 84.4578 121.315 80.5088 121.315 75.6196L121.221 40.3608C121.221 25.2231 133.162 13 148.206 13C163.249 13 175.472 25.2231 175.472 40.3608L175.566 75.6196C175.566 80.5088 171.711 84.4578 166.822 84.4578ZM256.697 21.5562C256.697 16.761 260.563 13.0001 265.359 13.0001C270.248 13.0001 274.28 16.761 274.28 21.5562L274.291 75.6196C274.291 80.5088 270.342 84.4578 265.453 84.4578C260.657 84.4578 256.708 80.5088 256.708 75.6196V60.3878H247.118V75.6196C247.118 80.5088 243.169 84.4578 238.28 84.4578C233.391 84.4578 229.536 80.5088 229.536 75.6196L229.525 21.6502C229.525 16.855 233.391 13.0001 238.28 13.0001C243.169 13.0001 247.107 16.855 247.107 21.6502L247.118 43.2756H256.708L256.697 21.5562ZM392.137 78.3463C387.812 82.0132 382.265 84.1757 376.247 84.1757C362.614 84.1757 351.613 73.081 351.613 59.5416L351.484 21.8383C351.484 16.949 355.433 13.0001 360.228 13.0001C365.117 13.0001 369.066 16.949 369.066 21.8383L369.196 59.5416C369.196 63.3966 372.392 66.5934 376.247 66.5934C380.102 66.5934 383.299 63.3966 383.299 59.5416L383.17 21.8383C383.17 16.949 387.119 13.0001 392.008 13.0001C396.803 13.0001 400.752 16.949 400.752 21.8383L400.881 59.5416C400.881 63.3966 404.078 66.5934 407.933 66.5934C411.882 66.5934 414.668 63.4906 414.668 59.6357V22.0263C414.668 17.1371 418.805 13.0001 423.694 13.0001C428.489 13.0001 432.72 17.1371 432.72 22.0263L432.567 59.5416C432.567 73.081 421.567 84.1757 407.933 84.1757C401.916 84.1757 396.368 82.0132 392.137 78.3463ZM470.612 67.2515H453.405V60.3878H470.483C475.372 60.3878 479.356 57.003 479.356 52.1138C479.356 47.2246 475.372 43.4636 470.483 43.4636H453.405V30.6764H470.612C475.407 30.6764 479.356 26.7275 479.356 21.8383C479.356 17.0431 475.278 13.0001 470.483 13.0001H444.721C439.831 13.0001 435.729 17.0431 435.729 21.8383L435.823 75.6196C435.823 80.5088 439.772 84.4578 444.661 84.4578H470.706C475.501 84.4578 479.356 80.6969 479.356 75.8077C479.356 70.9185 475.407 67.2515 470.612 67.2515ZM521.419 36.694C521.419 38.7625 521.137 40.6429 520.666 42.6174C525.838 47.0365 529 53.1481 529 60.3878V75.8077C529 80.6969 525.145 84.4578 520.35 84.4578C515.461 84.4578 511.324 80.6969 511.324 75.8077V60.3878H499.773L499.665 75.8077C499.665 80.6969 495.904 84.4578 491.015 84.4578C486.125 84.4578 482.364 80.6969 482.364 75.8077V21.6502C482.364 19.2997 483.211 17.1371 484.903 15.4447C486.595 13.8463 488.664 13.0001 491.015 13.0001H497.784C510.665 13.0001 521.419 23.7187 521.419 36.694ZM205.742 41.5832H205.559C200.595 41.5832 197.285 41.2878 197.285 36.3179C197.285 31.348 200.595 31.0526 205.559 31.0526H218.347C222.875 31.0526 226.621 26.5603 226.621 22.0263C226.621 17.4924 222.875 13.0001 218.347 13.0001L203.828 13.0001C189.805 13.0001 178.481 23.3212 178.481 37.2718C178.481 51.2224 189.803 59.6357 203.825 59.6357H207.24C211.616 59.6362 213.081 59.68 213.081 63.0205C213.081 66.4053 211.577 66.4053 207.064 66.4053H186.755C182.217 66.4053 178.481 70.9185 178.481 75.5125C178.481 80.1065 182.145 84.4576 186.683 84.4576L205.742 84.4576C219.79 84.4576 226.621 74.2959 226.621 63.0026C226.621 51.7092 219.79 41.5832 205.742 41.5832ZM312.746 84.4578C332.479 84.4578 348.475 68.4615 348.475 48.729C348.475 28.9964 332.479 13.0001 312.746 13.0001C293.014 13.0001 277.017 28.9964 277.017 48.729C277.017 68.4615 293.014 84.4578 312.746 84.4578ZM40.2612 41.5832H40.0787C35.1143 41.5832 31.8047 41.2878 31.8047 36.3179C31.8047 31.348 35.1143 31.0526 40.0787 31.0526H52.8659C57.3948 31.0526 61.1399 26.5603 61.1399 22.0264C61.1399 17.4924 57.3948 13.0001 52.8659 13.0001L38.3471 13.0001C24.3248 13.0001 13 23.3212 13 37.2718C13 51.2224 24.3223 59.6357 38.3447 59.6357H41.759C46.1354 59.6363 47.6006 59.6801 47.6006 63.0205C47.6006 66.4054 46.0962 66.4054 41.5831 66.4054H21.2741C16.7367 66.4054 13 70.9185 13 75.5125C13 80.1065 16.6648 84.4576 21.2022 84.4576L40.2612 84.4576C54.3096 84.4576 61.1399 74.2959 61.1399 63.0026C61.1399 51.7093 54.3096 41.5832 40.2612 41.5832Z" fill="white"/>
<path d="M157.984 75.6196L170.984 75.6196L170.984 75.6074L157.984 75.6196ZM157.951 40.3608L144.951 40.3608L144.951 40.373L157.951 40.3608ZM138.864 40.3608L125.864 40.3608L125.864 40.373L138.864 40.3608ZM138.897 75.6196L151.897 75.6196L151.897 75.6074L138.897 75.6196ZM121.315 75.6196H134.315V75.6023L134.315 75.5849L121.315 75.6196ZM121.221 40.3608H108.221V40.3782L108.221 40.3955L121.221 40.3608ZM175.472 40.3608H162.472V40.3782L162.472 40.3955L175.472 40.3608ZM175.566 75.6196H188.566V75.6023L188.566 75.5849L175.566 75.6196ZM256.697 21.5562L243.697 21.5562L243.697 21.5628L256.697 21.5562ZM274.28 21.5562L261.28 21.5562L261.28 21.5588L274.28 21.5562ZM274.291 75.6196L287.291 75.6196L287.291 75.617L274.291 75.6196ZM256.708 60.3878H269.708V47.3878H256.708V60.3878ZM247.118 60.3878V47.3878H234.118V60.3878H247.118ZM229.536 75.6196L242.536 75.6196L242.536 75.617L229.536 75.6196ZM229.525 21.6502L216.525 21.6502L216.525 21.6529L229.525 21.6502ZM247.107 21.6502H234.107L234.107 21.6568L247.107 21.6502ZM247.118 43.2756L234.118 43.2822L234.125 56.2756H247.118V43.2756ZM256.708 43.2756V56.2756H269.715L269.708 43.269L256.708 43.2756ZM392.137 78.3463L400.651 68.5224L392.23 61.2241L383.73 68.4305L392.137 78.3463ZM351.613 59.5416H364.613V59.5193L364.613 59.497L351.613 59.5416ZM351.484 21.8383H338.484V21.8605L338.484 21.8828L351.484 21.8383ZM369.066 21.8383H356.066V21.8605L356.066 21.8828L369.066 21.8383ZM369.196 59.5416H382.196V59.5193L382.196 59.497L369.196 59.5416ZM383.299 59.5416H396.299V59.5193L396.299 59.497L383.299 59.5416ZM383.17 21.8383H370.17V21.8605L370.17 21.8828L383.17 21.8383ZM400.752 21.8383H387.752V21.8605L387.752 21.8828L400.752 21.8383ZM400.881 59.5416H413.881V59.5193L413.881 59.497L400.881 59.5416ZM432.72 22.0263L445.72 22.0793L445.72 22.0528V22.0263H432.72ZM432.567 59.5416L419.567 59.4887L419.567 59.5151V59.5416H432.567ZM453.405 67.2515H440.405V80.2515H453.405V67.2515ZM453.405 60.3878V47.3878H440.405V60.3878H453.405ZM453.405 43.4636H440.405V56.4636H453.405V43.4636ZM453.405 30.6764V17.6764H440.405V30.6764H453.405ZM435.729 21.8383H422.729V21.8496L422.729 21.861L435.729 21.8383ZM435.823 75.6196H448.823V75.6083L448.823 75.5969L435.823 75.6196ZM520.666 42.6174L508.02 39.6063L506.179 47.3375L512.221 52.5005L520.666 42.6174ZM511.324 60.3878H524.324V47.3878H511.324V60.3878ZM499.773 60.3878V47.3878H486.864L486.773 60.2967L499.773 60.3878ZM499.665 75.8077L486.665 75.7165L486.665 75.7621V75.8077H499.665ZM484.903 15.4447L475.977 5.99346L475.842 6.12099L475.711 6.25234L484.903 15.4447ZM218.347 31.0526L218.347 18.0526H218.347V31.0526ZM218.347 13.0001L218.347 9.18196e-05L218.347 9.18197e-05L218.347 13.0001ZM203.828 13.0001L203.828 26.0001L203.828 26.0001L203.828 13.0001ZM207.24 59.6357L207.241 46.6357H207.24V59.6357ZM186.683 84.4576L186.683 71.4576H186.683V84.4576ZM205.742 84.4576L205.742 97.4576H205.742V84.4576ZM52.8659 31.0526L52.8659 18.0526H52.8659V31.0526ZM52.8659 13.0001L52.8659 0.00012207L52.8659 0.00012207L52.8659 13.0001ZM38.3471 13.0001L38.3471 26.0001L38.3471 26.0001L38.3471 13.0001ZM41.759 59.6357L41.7608 46.6357H41.759V59.6357ZM21.2022 84.4576L21.2022 71.4576H21.2022V84.4576ZM40.2612 84.4576L40.2612 97.4576H40.2612V84.4576ZM109.75 2.86936e-05C98.5403 2.86936e-05 87.2536 9.12731 87.2536 22.0263H113.254C113.254 23.7608 112.457 24.7927 112.039 25.1834C111.64 25.5553 110.92 26 109.75 26V2.86936e-05ZM131.306 22.0263C131.306 10.8816 122.709 2.86936e-05 109.75 2.86936e-05V26C108.36 26 107.114 25.3639 106.335 24.5255C105.609 23.7431 105.306 22.831 105.306 22.0263H131.306ZM131.306 57.3791V22.0263H105.306V57.3791H131.306ZM91.1334 97.4578C113.268 97.4578 131.306 79.7847 131.306 57.3791H105.306C105.306 65.249 99.0859 71.4578 91.1334 71.4578V97.4578ZM51.1487 57.3791C51.1487 79.667 68.8804 97.4578 91.1334 97.4578V71.4578C83.2989 71.4578 77.1487 65.3667 77.1487 57.3791H51.1487ZM51.1487 22.0263V57.3791H77.1487V22.0263H51.1487ZM72.9869 0C60.5651 0 51.1487 10.3154 51.1487 22.0263H77.1487C77.1487 23.9588 75.6302 26 72.9869 26V0ZM95.2012 22.0263C95.2012 9.61478 84.7083 0 72.9869 0V26C71.7538 26 70.8809 25.5018 70.3654 25.0006C69.838 24.4878 69.2012 23.4876 69.2012 22.0263H95.2012ZM95.2012 57.3791V22.0263H69.2012V57.3791H95.2012ZM91.1334 53.8754C91.992 53.8754 93.2691 54.2935 94.2378 55.3496C95.114 56.3049 95.2012 57.178 95.2012 57.3791H69.2012C69.2012 68.8383 77.5601 79.8754 91.1334 79.8754V53.8754ZM87.2536 57.3791C87.2536 56.993 87.4148 56.097 88.2539 55.209C89.15 54.2606 90.3115 53.8754 91.1334 53.8754V79.8754C104.358 79.8754 113.254 69.2132 113.254 57.3791H87.2536ZM87.2536 22.0263V57.3791H113.254V22.0263H87.2536ZM144.984 75.6196C144.984 87.6885 154.753 97.4578 166.822 97.4578V71.4578C169.113 71.4578 170.984 73.3291 170.984 75.6196H144.984ZM144.951 40.373L144.984 75.6318L170.984 75.6074L170.951 40.3486L144.951 40.373ZM148.206 43.5824C146.328 43.5824 144.951 42.1239 144.951 40.3608H170.951C170.951 27.8791 160.802 17.5824 148.206 17.5824V43.5824ZM151.864 40.3608C151.864 40.9148 151.649 41.6709 151.005 42.3578C150.311 43.0969 149.258 43.5824 148.206 43.5824V17.5824C134.901 17.5824 125.864 28.6124 125.864 40.3608H151.864ZM151.897 75.6074L151.864 40.3487L125.864 40.373L125.897 75.6318L151.897 75.6074ZM130.059 97.4578C142.128 97.4578 151.897 87.6885 151.897 75.6196H125.897C125.897 73.3292 127.769 71.4578 130.059 71.4578V97.4578ZM108.315 75.6196C108.315 87.5063 117.809 97.4578 130.059 97.4578V71.4578C132.53 71.4578 134.315 73.5114 134.315 75.6196H108.315ZM108.221 40.3955L108.315 75.6543L134.315 75.5849L134.221 40.3262L108.221 40.3955ZM148.206 2.29549e-05C125.777 2.29549e-05 108.221 18.2498 108.221 40.3608H134.221C134.221 32.1964 140.546 26 148.206 26V2.29549e-05ZM188.472 40.3608C188.472 18.0725 170.458 2.29549e-05 148.206 2.29549e-05V26C156.04 26 162.472 32.3736 162.472 40.3608H188.472ZM188.566 75.5849L188.472 40.3261L162.472 40.3955L162.566 75.6543L188.566 75.5849ZM166.822 97.4578C179.072 97.4578 188.566 87.5063 188.566 75.6196H162.566C162.566 73.5113 164.351 71.4578 166.822 71.4578V97.4578ZM265.359 5.16486e-05C253.592 5.16486e-05 243.697 9.37489 243.697 21.5562H269.697C269.697 24.1471 267.535 26.0001 265.359 26.0001V5.16486e-05ZM287.28 21.5562C287.28 8.97214 276.803 5.16486e-05 265.359 5.16486e-05V26.0001C263.693 26.0001 261.28 24.5498 261.28 21.5562H287.28ZM287.291 75.617L287.28 21.5535L261.28 21.5588L261.291 75.6223L287.291 75.617ZM265.453 97.4578C277.522 97.4578 287.291 87.6886 287.291 75.6196H261.291C261.291 73.3291 263.162 71.4578 265.453 71.4578V97.4578ZM243.708 75.6196C243.708 87.5979 253.387 97.4578 265.453 97.4578V71.4578C267.927 71.4578 269.708 73.4198 269.708 75.6196H243.708ZM243.708 60.3878V75.6196H269.708V60.3878H243.708ZM247.118 73.3878H256.708V47.3878H247.118V73.3878ZM260.118 75.6196V60.3878H234.118V75.6196H260.118ZM238.28 97.4578C250.349 97.4578 260.118 87.6885 260.118 75.6196H234.118C234.118 73.3291 235.989 71.4578 238.28 71.4578V97.4578ZM216.536 75.6196C216.536 87.5063 226.03 97.4578 238.28 97.4578V71.4578C240.751 71.4578 242.536 73.5114 242.536 75.6196H216.536ZM216.525 21.6529L216.536 75.6223L242.536 75.617L242.525 21.6475L216.525 21.6529ZM238.28 5.16486e-05C226.324 5.16486e-05 216.525 9.56232 216.525 21.6502H242.525C242.525 24.1477 240.457 26.0001 238.28 26.0001V5.16486e-05ZM260.107 21.6502C260.107 9.42437 250.095 5.16486e-05 238.28 5.16486e-05V26.0001C236.243 26.0001 234.107 24.2856 234.107 21.6502H260.107ZM260.118 43.2689L260.107 21.6436L234.107 21.6568L234.118 43.2822L260.118 43.2689ZM256.708 30.2756H247.118V56.2756H256.708V30.2756ZM243.697 21.5628L243.708 43.2822L269.708 43.269L269.697 21.5496L243.697 21.5628ZM376.247 97.1757C385.44 97.1757 393.945 93.8574 400.544 88.2622L383.73 68.4305C381.68 70.169 379.09 71.1757 376.247 71.1757V97.1757ZM338.613 59.5416C338.613 80.2283 355.402 97.1757 376.247 97.1757V71.1757C369.826 71.1757 364.613 65.9336 364.613 59.5416H338.613ZM338.484 21.8828L338.613 59.5862L364.613 59.497L364.484 21.7937L338.484 21.8828ZM360.228 6.3126e-05C348.163 6.3126e-05 338.484 9.85994 338.484 21.8383H364.484C364.484 24.0382 362.703 26.0001 360.228 26.0001V6.3126e-05ZM382.066 21.8383C382.066 9.76935 372.297 6.3126e-05 360.228 6.3126e-05V26.0001C357.938 26.0001 356.066 24.1287 356.066 21.8383H382.066ZM382.196 59.497L382.066 21.7937L356.066 21.8828L356.196 59.5862L382.196 59.497ZM376.247 53.5934C379.572 53.5934 382.196 56.217 382.196 59.5416H356.196C356.196 70.5762 365.213 79.5934 376.247 79.5934V53.5934ZM370.299 59.5416C370.299 56.2169 372.923 53.5934 376.247 53.5934V79.5934C387.282 79.5934 396.299 70.5762 396.299 59.5416H370.299ZM370.17 21.8828L370.299 59.5862L396.299 59.497L396.17 21.7937L370.17 21.8828ZM392.008 6.3126e-05C379.939 6.3126e-05 370.17 9.76935 370.17 21.8383H396.17C396.17 24.1287 394.299 26.0001 392.008 26.0001V6.3126e-05ZM413.752 21.8383C413.752 9.85994 404.073 6.3126e-05 392.008 6.3126e-05V26.0001C389.533 26.0001 387.752 24.0382 387.752 21.8383H413.752ZM413.881 59.497L413.752 21.7937L387.752 21.8828L387.882 59.5862L413.881 59.497ZM407.933 53.5934C411.258 53.5934 413.881 56.2169 413.881 59.5416H387.881C387.881 70.5762 396.899 79.5934 407.933 79.5934V53.5934ZM401.668 59.6357C401.668 58.4123 402.128 56.9042 403.339 55.625C404.609 54.2828 406.342 53.5934 407.933 53.5934V79.5934C419.729 79.5934 427.668 69.9844 427.668 59.6357H401.668ZM401.668 22.0263V59.6357H427.668V22.0263H401.668ZM423.694 6.3126e-05C411.625 6.3126e-05 401.668 9.95747 401.668 22.0263H427.668C427.668 23.3027 427.132 24.2798 426.54 24.8721C425.947 25.4644 424.97 26.0001 423.694 26.0001V6.3126e-05ZM445.72 22.0263C445.72 9.87039 435.581 6.3126e-05 423.694 6.3126e-05V26.0001C422.328 26.0001 421.378 25.433 420.846 24.9048C420.301 24.3638 419.72 23.3904 419.72 22.0263H445.72ZM445.567 59.5946L445.72 22.0793L419.72 21.9734L419.567 59.4887L445.567 59.5946ZM407.933 97.1757C428.779 97.1757 445.567 80.2283 445.567 59.5416H419.567C419.567 65.9336 414.355 71.1757 407.933 71.1757V97.1757ZM383.623 88.1703C390.2 93.8705 398.765 97.1757 407.933 97.1757V71.1757C405.066 71.1757 402.536 70.1559 400.651 68.5224L383.623 88.1703ZM453.405 80.2515H470.612V54.2515H453.405V80.2515ZM440.405 60.3878V67.2515H466.405V60.3878H440.405ZM470.483 47.3878H453.405V73.3878H470.483V47.3878ZM466.356 52.1138C466.356 50.8183 466.963 49.4125 468.02 48.4544C468.98 47.5839 469.944 47.3878 470.483 47.3878V73.3878C481.327 73.3878 492.356 65.3493 492.356 52.1138H466.356ZM470.483 56.4636C468.628 56.4636 466.356 54.8322 466.356 52.1138H492.356C492.356 39.6169 482.116 30.4636 470.483 30.4636V56.4636ZM453.405 56.4636H470.483V30.4636H453.405V56.4636ZM440.405 30.6764V43.4636H466.405V30.6764H440.405ZM470.612 17.6764H453.405V43.6764H470.612V17.6764ZM466.356 21.8383C466.356 19.6384 468.137 17.6764 470.612 17.6764V43.6764C482.677 43.6764 492.356 33.8166 492.356 21.8383H466.356ZM470.483 26.0001C469.179 26.0001 468.172 25.4565 467.55 24.8379C466.925 24.2166 466.356 23.1854 466.356 21.8383H492.356C492.356 9.79795 482.392 6.3126e-05 470.483 6.3126e-05V26.0001ZM444.721 26.0001H470.483V6.3126e-05H444.721V26.0001ZM448.729 21.8383C448.729 23.2157 448.141 24.2661 447.508 24.8884C446.875 25.5114 445.907 26.0001 444.721 26.0001V6.3126e-05C432.854 6.3126e-05 422.729 9.66315 422.729 21.8383H448.729ZM448.823 75.5969L448.729 21.8155L422.729 21.861L422.823 75.6424L448.823 75.5969ZM444.661 71.4578C446.952 71.4578 448.823 73.3291 448.823 75.6196H422.823C422.823 87.6885 432.592 97.4578 444.661 97.4578V71.4578ZM470.706 71.4578H444.661V97.4578H470.706V71.4578ZM466.356 75.8077C466.356 73.4249 468.414 71.4578 470.706 71.4578V97.4578C482.588 97.4578 492.356 87.9689 492.356 75.8077H466.356ZM470.612 80.2515C469.662 80.2515 468.611 79.8757 467.764 79.0603C466.879 78.2078 466.356 76.9958 466.356 75.8077H492.356C492.356 63.2807 482.12 54.2515 470.612 54.2515V80.2515ZM533.313 45.6285C533.954 42.9364 534.419 40.0199 534.419 36.694H508.419C508.419 37.505 508.319 38.3495 508.02 39.6063L533.313 45.6285ZM542 60.3878C542 49.0317 536.926 39.4114 529.112 32.7344L512.221 52.5005C514.75 54.6616 516 57.2644 516 60.3878H542ZM542 75.8077V60.3878H516V75.8077H542ZM520.35 97.4578C532.232 97.4578 542 87.9689 542 75.8077H516C516 73.4249 518.058 71.4578 520.35 71.4578V97.4578ZM498.324 75.8077C498.324 88.5867 509.012 97.4578 520.35 97.4578V71.4578C521.909 71.4578 524.324 72.8071 524.324 75.8077H498.324ZM498.324 60.3878V75.8077H524.324V60.3878H498.324ZM499.773 73.3878H511.324V47.3878H499.773V73.3878ZM512.664 75.8989L512.773 60.479L486.773 60.2967L486.665 75.7165L512.664 75.8989ZM491.015 97.4578C503.083 97.4578 512.665 87.8766 512.665 75.8077H486.665C486.665 74.8331 487.074 73.6806 487.981 72.7738C488.887 71.8671 490.04 71.4578 491.015 71.4578V97.4578ZM469.364 75.8077C469.364 87.8766 478.946 97.4578 491.015 97.4578V71.4578C491.989 71.4578 493.142 71.867 494.048 72.7738C494.955 73.6806 495.364 74.8331 495.364 75.8077H469.364ZM469.364 21.6502V75.8077H495.364V21.6502H469.364ZM475.711 6.25234C471.471 10.4921 469.364 16.0097 469.364 21.6502H495.364C495.364 22.0488 495.289 22.5851 495.051 23.1753C494.809 23.7734 494.461 24.2716 494.095 24.6371L475.711 6.25234ZM491.015 9.18197e-05C485.269 9.18197e-05 480.027 2.16843 475.977 5.99346L493.829 24.8959C493.57 25.1407 493.147 25.4492 492.564 25.6836C491.977 25.9196 491.428 26.0001 491.015 26.0001V9.18197e-05ZM497.784 9.18197e-05H491.015V26.0001H497.784V9.18197e-05ZM534.419 36.694C534.419 16.5479 517.854 9.18197e-05 497.784 9.18197e-05V26.0001C503.477 26.0001 508.419 30.8896 508.419 36.694H534.419ZM205.559 54.5832H205.742V28.5832H205.559V54.5832ZM184.285 36.3179C184.285 38.9052 184.702 42.1566 186.412 45.359C188.251 48.804 191.018 51.1336 193.935 52.5338C198.548 54.7485 203.811 54.5832 205.559 54.5832V28.5832C204.341 28.5832 203.797 28.5584 203.523 28.5297C203.21 28.497 204 28.5249 205.187 29.0947C206.656 29.7998 208.285 31.1237 209.348 33.1155C210.282 34.8647 210.285 36.2155 210.285 36.3179H184.285ZM205.559 18.0526C203.811 18.0526 198.548 17.8873 193.935 20.1019C191.018 21.5022 188.251 23.8317 186.412 27.2767C184.702 30.4791 184.285 33.7305 184.285 36.3179H210.285C210.285 36.4203 210.282 37.7711 209.348 39.5203C208.285 41.5121 206.656 42.836 205.187 43.5411C204 44.1108 203.21 44.1387 203.523 44.106C203.797 44.0774 204.341 44.0526 205.559 44.0526V18.0526ZM218.347 18.0526H205.559V44.0526H218.347V18.0526ZM213.621 22.0263C213.621 20.8219 214.052 20.0683 214.467 19.6019C214.904 19.1102 216.172 18.0526 218.347 18.0526L218.347 44.0526C225.05 44.0526 230.455 40.7488 233.897 36.8775C237.317 33.0314 239.621 27.7647 239.621 22.0263H213.621ZM218.347 26.0001C216.172 26.0001 214.904 24.9424 214.467 24.4508C214.052 23.9844 213.621 23.2307 213.621 22.0263H239.621C239.621 16.288 237.317 11.0212 233.897 7.17518C230.455 3.3039 225.05 9.18197e-05 218.347 9.18197e-05V26.0001ZM203.828 26.0001L218.347 26.0001L218.347 9.18197e-05L203.828 0.000111957L203.828 26.0001ZM191.481 37.2718C191.481 31.2053 196.26 26.0001 203.828 26.0001L203.828 0.000111957C183.351 0.000111062 165.481 15.4371 165.481 37.2718H191.481ZM203.825 46.6357C199.321 46.6357 196.105 45.2828 194.252 43.7279C192.62 42.3573 191.481 40.4152 191.481 37.2718H165.481C165.481 48.079 170.003 57.3188 177.537 63.6425C184.851 69.7819 194.307 72.6357 203.825 72.6357V46.6357ZM207.24 46.6357H203.825V72.6357H207.24V46.6357ZM226.081 63.0205C226.081 61.4942 225.957 58.7809 224.708 55.9051C223.2 52.4316 220.549 49.8204 217.324 48.3069C214.691 47.0715 212.193 46.8229 210.97 46.7313C209.637 46.6315 208.206 46.6358 207.241 46.6357L207.238 72.6357C208.462 72.6358 208.855 72.6458 209.028 72.6587C209.31 72.6799 207.999 72.6512 206.279 71.8444C205.293 71.3817 204.167 70.6647 203.114 69.5924C202.054 68.5143 201.329 67.3423 200.859 66.2598C200.411 65.2276 200.233 64.3662 200.156 63.8631C200.081 63.3633 200.081 63.0482 200.081 63.0205H226.081ZM207.064 79.4053C208.037 79.4053 209.477 79.412 210.792 79.3223C211.993 79.2405 214.477 79.0173 217.1 77.8372C220.333 76.3823 223.078 73.805 224.655 70.2572C225.956 67.3309 226.081 64.5603 226.081 63.0205H200.081C200.081 62.9933 200.081 62.6696 200.16 62.1566C200.239 61.6397 200.426 60.7543 200.896 59.6975C201.39 58.5873 202.146 57.4019 203.236 56.3259C204.317 55.2594 205.457 54.5651 206.43 54.1273C208.112 53.3702 209.374 53.3587 209.024 53.3826C208.787 53.3987 208.347 53.4053 207.064 53.4053V79.4053ZM186.755 79.4053H207.064V53.4053H186.755V79.4053ZM191.481 75.5125C191.481 76.6354 191.085 77.3597 190.667 77.8344C190.227 78.3323 188.947 79.4053 186.755 79.4053V53.4053C180.025 53.4053 174.608 56.7349 171.166 60.6379C167.744 64.5177 165.481 69.7955 165.481 75.5125H191.481ZM186.683 71.4576C188.73 71.4576 190.035 72.4419 190.579 73.0514C191.092 73.6263 191.481 74.4271 191.481 75.5125H165.481C165.481 85.8567 173.615 97.4576 186.683 97.4576V71.4576ZM205.742 71.4576L186.683 71.4576L186.683 97.4576L205.742 97.4576L205.742 71.4576ZM213.621 63.0026C213.621 66.1445 212.668 68.2611 211.673 69.3967C210.9 70.2783 209.372 71.4576 205.742 71.4576V97.4576C216.16 97.4576 225.071 93.556 231.226 86.5334C237.158 79.7649 239.621 71.154 239.621 63.0026H213.621ZM205.742 54.5832C209.388 54.5832 210.916 55.7647 211.682 56.6372C212.669 57.7608 213.621 59.8623 213.621 63.0026H239.621C239.621 54.8495 237.157 46.2414 231.216 39.4786C225.056 32.4647 216.144 28.5832 205.742 28.5832V54.5832ZM335.475 48.729C335.475 61.2818 325.299 71.4578 312.746 71.4578V97.4578C339.659 97.4578 361.475 75.6412 361.475 48.729H335.475ZM312.746 26.0001C325.299 26.0001 335.475 36.1762 335.475 48.729H361.475C361.475 21.8167 339.659 9.18197e-05 312.746 9.18197e-05V26.0001ZM290.017 48.729C290.017 36.1762 300.194 26.0001 312.746 26.0001V9.18197e-05C285.834 9.18197e-05 264.017 21.8167 264.017 48.729H290.017ZM312.746 71.4578C300.194 71.4578 290.017 61.2818 290.017 48.729H264.017C264.017 75.6412 285.834 97.4578 312.746 97.4578V71.4578ZM40.0787 54.5832H40.2612V28.5832H40.0787V54.5832ZM18.8047 36.3179C18.8047 38.9053 19.2216 42.1567 20.931 45.359C22.7699 48.804 25.5372 51.1336 28.4541 52.5339C33.0675 54.7485 38.3302 54.5832 40.0787 54.5832V28.5832C38.8602 28.5832 38.3165 28.5584 38.0423 28.5298C37.7292 28.4971 38.5191 28.525 39.706 29.0947C41.1749 29.7998 42.8045 31.1237 43.8678 33.1155C44.8015 34.8647 44.8047 36.2155 44.8047 36.3179H18.8047ZM40.0787 18.0526C38.3302 18.0526 33.0675 17.8873 28.4541 20.102C25.5372 21.5022 22.7699 23.8318 20.931 27.2768C19.2216 30.4791 18.8047 33.7306 18.8047 36.3179H44.8047C44.8047 36.4203 44.8015 37.7711 43.8678 39.5203C42.8045 41.5121 41.1749 42.836 39.706 43.5411C38.5192 44.1109 37.7292 44.1388 38.0423 44.106C38.3165 44.0774 38.8602 44.0526 40.0787 44.0526V18.0526ZM52.8659 18.0526H40.0787V44.0526H52.8659V18.0526ZM48.1399 22.0264C48.1399 20.822 48.5712 20.0683 48.9859 19.6019C49.423 19.1103 50.6915 18.0526 52.8659 18.0526L52.8659 44.0526C59.5692 44.0526 64.9747 40.7488 68.4166 36.8775C71.8361 33.0315 74.1399 27.7647 74.1399 22.0264H48.1399ZM52.8659 26.0001C50.6915 26.0001 49.423 24.9425 48.9859 24.4508C48.5712 23.9844 48.1399 23.2307 48.1399 22.0264H74.1399C74.1399 16.288 71.8361 11.0213 68.4166 7.17521C64.9747 3.30393 59.5692 0.000122363 52.8659 0.00012207L52.8659 26.0001ZM38.3471 26.0001L52.8659 26.0001L52.8659 0.00012207L38.3471 0.000141941L38.3471 26.0001ZM26 37.2718C26 31.2054 30.7792 26.0001 38.3471 26.0001L38.3471 0.000141941C17.8703 0.000141046 0 15.4371 0 37.2718H26ZM38.3447 46.6357C33.8404 46.6357 30.6242 45.2828 28.7718 43.728C27.1389 42.3574 26 40.4152 26 37.2718H0C0 48.079 4.5223 57.3188 12.0562 63.6425C19.3705 69.7819 28.8267 72.6357 38.3447 72.6357V46.6357ZM41.759 46.6357H38.3447V72.6357H41.759V46.6357ZM60.6006 63.0205C60.6006 61.4943 60.4764 58.7809 59.2278 55.9051C57.7197 52.4316 55.0687 49.8204 51.8433 48.3069C49.2106 47.0715 46.7119 46.823 45.489 46.7314C44.1565 46.6316 42.7251 46.6358 41.7608 46.6357L41.7573 72.6357C42.9812 72.6359 43.374 72.6458 43.5471 72.6588C43.8297 72.6799 42.518 72.6512 40.7986 71.8444C39.8126 71.3817 38.6864 70.6648 37.6329 69.5924C36.5737 68.5144 35.8487 67.3423 35.3787 66.2598C34.9306 65.2276 34.7519 64.3662 34.6757 63.8632C34.6 63.3634 34.6006 63.0483 34.6006 63.0205H60.6006ZM41.5831 79.4054C42.5559 79.4054 43.9967 79.412 45.3116 79.3224C46.5124 79.2405 48.9965 79.0174 51.619 77.8372C54.8521 76.3823 57.5977 73.805 59.1746 70.2572C60.4751 67.3309 60.6006 64.5603 60.6006 63.0205H34.6006C34.6006 62.9933 34.5999 62.6696 34.679 62.1567C34.7587 61.6397 34.9458 60.7544 35.4155 59.6976C35.9089 58.5873 36.6649 57.402 37.7553 56.3259C38.836 55.2594 39.9766 54.5651 40.9495 54.1273C42.6318 53.3703 43.8936 53.3587 43.543 53.3826C43.3065 53.3987 42.8668 53.4054 41.5831 53.4054V79.4054ZM21.2741 79.4054H41.5831V53.4054H21.2741V79.4054ZM26 75.5125C26 76.6355 25.6045 77.3597 25.1859 77.8344C24.7468 78.3323 23.4661 79.4054 21.2741 79.4054V53.4054C14.5446 53.4054 9.12686 56.735 5.68508 60.638C2.26384 64.5177 0 69.7955 0 75.5125H26ZM21.2022 71.4576C23.2495 71.4576 24.5544 72.4419 25.0985 73.0515C25.6116 73.6264 26 74.4272 26 75.5125H0C0 85.8567 8.13453 97.4576 21.2022 97.4576V71.4576ZM40.2612 71.4576L21.2022 71.4576L21.2022 97.4576L40.2612 97.4576L40.2612 71.4576ZM48.1399 63.0026C48.1399 66.1445 47.1873 68.2611 46.192 69.3968C45.4194 70.2784 43.8918 71.4576 40.2612 71.4576V97.4576C50.679 97.4576 59.5908 93.556 65.7454 86.5335C71.6774 79.7649 74.1399 71.154 74.1399 63.0026H48.1399ZM40.2612 54.5832C43.907 54.5832 45.4352 55.7647 46.2016 56.6372C47.1886 57.7608 48.1399 59.8624 48.1399 63.0026H74.1399C74.1399 54.8495 71.6761 46.2414 65.7358 39.4786C59.5749 32.4648 50.6638 28.5832 40.2612 28.5832V54.5832Z" fill="#56CCF2" mask="url(#path-1-outside-1)"/>
<circle cx="313.123" cy="49.1051" r="20.309" fill="#56CCF2"/>
<path d="M334.184 43.0876H292.813V71.6706H334.184V43.0876Z" fill="white"/>
<path d="M46.4713 116.8H59.6713C63.2353 116.8 66.3153 117.284 68.9113 118.252C70.0113 118.648 70.8913 119.396 71.5513 120.496C72.2113 121.552 72.7393 122.52 73.1353 123.4C73.5313 124.28 73.7953 125.732 73.9273 127.756C74.1913 131.012 74.3233 134.95 74.3233 139.57C74.3233 144.146 74.2793 147.38 74.1913 149.272C74.1033 151.164 73.8173 153.254 73.3333 155.542C72.8933 157.786 72.1453 159.304 71.0893 160.096C68.4933 162.032 64.6873 163 59.6713 163H46.4713V116.8ZM59.7373 121.552H52.1473V158.116H59.7373C62.7733 158.116 65.0833 157.61 66.6673 156.598C67.7673 155.894 68.3833 154.508 68.5153 152.44C68.5593 151.78 68.5813 150.79 68.5813 149.47V130.198C68.5813 128.878 68.5593 127.91 68.5153 127.294C68.4713 126.634 68.2953 125.864 67.9873 124.984C67.7233 124.104 67.2833 123.466 66.6673 123.07C65.0833 122.058 62.7733 121.552 59.7373 121.552ZM85.2076 163V116.8H107.186L106.526 121.42H90.8836V137.524H105.206V142.144H90.8836V158.38H107.846V163H85.2076ZM132.441 163H123.597L112.773 116.8H118.383L127.821 159.238H128.217L137.655 116.8H143.265L132.441 163ZM151.53 163V116.8H173.508L172.848 121.42H157.206V137.524H171.528V142.144H157.206V158.38H174.168V163H151.53ZM182.725 163V116.8H188.401V158.38H203.317V163H182.725ZM233.405 162.274C232.349 162.67 231.051 163.022 229.511 163.33C228.015 163.638 226.387 163.792 224.627 163.792C222.867 163.792 221.393 163.726 220.205 163.594C219.061 163.506 218.027 163.308 217.103 163C216.179 162.648 215.365 162.318 214.661 162.01C213.957 161.702 213.319 161.174 212.747 160.426C212.219 159.678 211.779 159.04 211.427 158.512C211.075 157.984 210.767 157.126 210.503 155.938C210.283 154.75 210.107 153.76 209.975 152.968C209.843 152.132 209.755 150.856 209.711 149.14C209.623 145.796 209.579 142.65 209.579 139.702C209.579 136.754 209.601 134.532 209.645 133.036C209.689 131.54 209.777 129.736 209.909 127.624C210.085 125.512 210.371 124.016 210.767 123.136C211.163 122.212 211.691 121.178 212.351 120.034C213.011 118.846 213.869 118.032 214.925 117.592C217.741 116.536 220.711 116.008 223.835 116.008C226.959 116.008 229.423 116.338 231.227 116.998C233.075 117.614 234.527 118.362 235.583 119.242C236.639 120.122 237.387 121.75 237.827 124.126C238.311 126.502 238.597 128.658 238.685 130.594C238.773 132.53 238.817 135.368 238.817 139.108C238.817 142.804 238.795 145.4 238.751 146.896C238.707 148.392 238.597 150.196 238.421 152.308C238.289 154.42 238.025 155.938 237.629 156.862C237.233 157.742 236.705 158.754 236.045 159.898C235.385 161.042 234.505 161.834 233.405 162.274ZM233.075 150.262V129.538C233.075 126.018 232.701 123.884 231.953 123.136C230.853 121.948 229.643 121.244 228.323 121.024C227.047 120.804 225.683 120.694 224.231 120.694C222.779 120.694 221.525 120.782 220.469 120.958C219.413 121.134 218.555 121.442 217.895 121.882C217.279 122.322 216.773 122.74 216.377 123.136C216.025 123.532 215.761 124.148 215.585 124.984C215.409 126.04 215.321 127.558 215.321 129.538V150.262C215.321 153.782 215.673 155.916 216.377 156.664C217.521 157.852 218.753 158.556 220.073 158.776C221.393 158.996 222.779 159.106 224.231 159.106C225.683 159.106 226.915 159.018 227.927 158.842C228.983 158.666 229.819 158.358 230.435 157.918C231.095 157.478 231.601 157.06 231.953 156.664C232.349 156.268 232.613 155.652 232.745 154.816C232.965 153.76 233.075 152.242 233.075 150.262ZM249.692 116.8H259.658C264.938 116.8 268.7 117.922 270.944 120.166C273.188 122.41 274.31 126.26 274.31 131.716C274.31 137.172 273.188 141.022 270.944 143.266C268.7 145.51 264.938 146.632 259.658 146.632H255.368V163H249.692V116.8ZM268.568 133.3V130.132C268.568 128.812 268.546 127.844 268.502 127.228C268.458 126.568 268.282 125.798 267.974 124.918C267.71 124.038 267.27 123.4 266.654 123.004C265.07 121.992 262.76 121.486 259.724 121.486H255.368V141.946H259.724C262.76 141.946 265.07 141.44 266.654 140.428C267.754 139.724 268.37 138.316 268.502 136.204C268.546 135.588 268.568 134.62 268.568 133.3ZM283.53 163V116.8H305.508L304.848 121.42H289.206V137.524H303.528V142.144H289.206V158.38H306.168V163H283.53ZM324.691 145.312H320.401V163H314.725V116.8H324.691C329.971 116.8 333.733 117.878 335.977 120.034C338.221 122.146 339.343 125.82 339.343 131.056C339.343 134.664 338.815 137.524 337.759 139.636C336.747 141.704 335.119 143.178 332.875 144.058L340.465 163H334.657L327.397 145.246C326.825 145.29 325.923 145.312 324.691 145.312ZM333.601 132.508V129.604C333.601 128.372 333.579 127.47 333.535 126.898C333.491 126.282 333.315 125.556 333.007 124.72C332.743 123.884 332.303 123.268 331.687 122.872C330.147 121.948 327.837 121.486 324.757 121.486H320.401V140.626H324.757C327.837 140.626 330.147 140.164 331.687 139.24C332.303 138.844 332.743 138.228 333.007 137.392C333.315 136.556 333.491 135.852 333.535 135.28C333.579 134.664 333.601 133.74 333.601 132.508ZM366.868 116.8H377.824C382.62 116.8 385.986 117.812 387.922 119.836C389.858 121.816 390.826 125.27 390.826 130.198C390.826 135.126 389.286 138.338 386.206 139.834C388.274 140.582 389.77 141.77 390.694 143.398C391.662 144.982 392.146 147.226 392.146 150.13C392.146 154.706 391.09 158.006 388.978 160.03C386.91 162.01 383.302 163 378.154 163H366.868V116.8ZM386.404 151.384V148.81C386.404 146.082 386.052 144.41 385.348 143.794C384.16 142.826 382.928 142.276 381.652 142.144C380.376 141.968 379.012 141.88 377.56 141.88H372.544V158.314H378.22C381.168 158.314 383.324 157.896 384.688 157.06C385.656 156.488 386.206 155.388 386.338 153.76C386.382 153.232 386.404 152.44 386.404 151.384ZM385.084 131.122V128.548C385.084 125.38 384.556 123.444 383.5 122.74C382.312 121.904 380.398 121.486 377.758 121.486H372.544V138.118H377.098C379.958 138.118 382.048 137.7 383.368 136.864C384.336 136.292 384.886 135.148 385.018 133.432C385.062 132.948 385.084 132.178 385.084 131.122ZM403.026 163V116.8H408.702V158.38H423.618V163H403.026ZM453.706 162.274C452.65 162.67 451.352 163.022 449.812 163.33C448.316 163.638 446.688 163.792 444.928 163.792C443.168 163.792 441.694 163.726 440.506 163.594C439.362 163.506 438.328 163.308 437.404 163C436.48 162.648 435.666 162.318 434.962 162.01C434.258 161.702 433.62 161.174 433.048 160.426C432.52 159.678 432.08 159.04 431.728 158.512C431.376 157.984 431.068 157.126 430.804 155.938C430.584 154.75 430.408 153.76 430.276 152.968C430.144 152.132 430.056 150.856 430.012 149.14C429.924 145.796 429.88 142.65 429.88 139.702C429.88 136.754 429.902 134.532 429.946 133.036C429.99 131.54 430.078 129.736 430.21 127.624C430.386 125.512 430.672 124.016 431.068 123.136C431.464 122.212 431.992 121.178 432.652 120.034C433.312 118.846 434.17 118.032 435.226 117.592C438.042 116.536 441.012 116.008 444.136 116.008C447.26 116.008 449.724 116.338 451.528 116.998C453.376 117.614 454.828 118.362 455.884 119.242C456.94 120.122 457.688 121.75 458.128 124.126C458.612 126.502 458.898 128.658 458.986 130.594C459.074 132.53 459.118 135.368 459.118 139.108C459.118 142.804 459.096 145.4 459.052 146.896C459.008 148.392 458.898 150.196 458.722 152.308C458.59 154.42 458.326 155.938 457.93 156.862C457.534 157.742 457.006 158.754 456.346 159.898C455.686 161.042 454.806 161.834 453.706 162.274ZM453.376 150.262V129.538C453.376 126.018 453.002 123.884 452.254 123.136C451.154 121.948 449.944 121.244 448.624 121.024C447.348 120.804 445.984 120.694 444.532 120.694C443.08 120.694 441.826 120.782 440.77 120.958C439.714 121.134 438.856 121.442 438.196 121.882C437.58 122.322 437.074 122.74 436.678 123.136C436.326 123.532 436.062 124.148 435.886 124.984C435.71 126.04 435.622 127.558 435.622 129.538V150.262C435.622 153.782 435.974 155.916 436.678 156.664C437.822 157.852 439.054 158.556 440.374 158.776C441.694 158.996 443.08 159.106 444.532 159.106C445.984 159.106 447.216 159.018 448.228 158.842C449.284 158.666 450.12 158.358 450.736 157.918C451.396 157.478 451.902 157.06 452.254 156.664C452.65 156.268 452.914 155.652 453.046 154.816C453.266 153.76 453.376 152.242 453.376 150.262ZM495.205 161.284C493.929 161.988 492.147 162.582 489.859 163.066C487.571 163.55 485.591 163.792 483.919 163.792C482.247 163.792 480.817 163.726 479.629 163.594C478.485 163.506 477.451 163.308 476.527 163C475.603 162.648 474.789 162.318 474.085 162.01C473.381 161.702 472.743 161.174 472.171 160.426C471.643 159.678 471.203 159.04 470.851 158.512C470.499 157.984 470.191 157.126 469.927 155.938C469.707 154.75 469.531 153.76 469.399 152.968C469.267 152.132 469.179 150.856 469.135 149.14C469.047 145.796 469.003 142.65 469.003 139.702C469.003 136.754 469.025 134.532 469.069 133.036C469.113 131.54 469.201 129.736 469.333 127.624C469.509 125.512 469.795 124.016 470.191 123.136C470.587 122.212 471.115 121.178 471.775 120.034C472.435 118.846 473.293 118.032 474.349 117.592C477.165 116.536 480.245 116.008 483.589 116.008C486.977 116.008 490.277 116.492 493.489 117.46L492.499 121.75C489.551 121.046 486.911 120.694 484.579 120.694C482.247 120.694 480.487 120.848 479.299 121.156C478.155 121.464 477.275 121.816 476.659 122.212C476.043 122.608 475.581 123.246 475.273 124.126C475.009 125.006 474.855 125.776 474.811 126.436C474.767 127.052 474.745 128.02 474.745 129.34V150.262C474.745 153.782 475.097 155.916 475.801 156.664C476.945 157.852 478.177 158.556 479.497 158.776C480.817 158.996 482.401 159.106 484.249 159.106C486.097 159.106 487.989 158.908 489.925 158.512V143.53H483.655V139.57H495.205V161.284Z" fill="white"/>
</svg>
