<svg width="134" height="112" viewBox="0 0 134 112" fill="none" xmlns="http://www.w3.org/2000/svg">
<path fill-rule="evenodd" clip-rule="evenodd" d="M0 0H7.48626H10.4807H18.7147H21.7091H29.9441H32.9385H41.1735H44.1679H52.402H55.3964H63.6304H66.6248H74.8598H77.8542H86.0882H89.0826H97.3186H100.313H108.547H111.541H119.775H122.77H131.006H133.999H134V112H131.006V105.212H122.77V112H119.775V105.212H111.541V112H108.547V105.212H100.313V112H97.3186V105.212H89.0826V112H86.0882V105.212H77.8542V112H74.8598V105.212H66.6248V112H63.6304V105.212H55.3964V112H52.402V105.212H44.1679V112H41.1735V105.212H32.9385V112H29.9441V105.212H21.7091V112H18.7147V105.212H10.4807V112H7.48626V105.212H0V102.195H7.48626V93.899H0V90.8822H7.48626V82.5858H0V79.569H7.48626V71.2727H0V68.2559H7.48626V59.9596H0V56.9428H7.48626V48.2694H0V45.2525H7.48626V36.9562H0V33.9394H7.48626V25.6431H0V22.6263H7.48626V14.33H0V11.3131H7.48626V3.01683H0V0ZM10.4807 102.195H18.7147V93.899H10.4807V102.195ZM21.7091 102.195H29.9441V93.899H21.7091V102.195ZM32.9385 102.195H41.1735V93.899H32.9385V102.195ZM44.1679 102.195H52.402V93.899H44.1679V102.195ZM55.3964 102.195H63.6304V93.899H55.3964V102.195ZM66.6248 102.195H74.8598V93.899H66.6248V102.195ZM77.8542 102.195H86.0882V93.899H77.8542V102.195ZM89.0826 102.195H97.3186V93.899H89.0826V102.195ZM100.313 102.195H108.547V93.899H100.313V102.195ZM111.541 102.195H119.775V93.899H111.541V102.195ZM122.77 102.195H131.006V93.899H122.77V102.195ZM131.006 82.5858V90.8822H122.77V82.5858H131.006ZM119.775 82.5858V90.8822H111.541V82.5858H119.775ZM108.547 82.5858V90.8822H100.313V82.5858H108.547ZM97.3186 82.5858V90.8822H89.0826V82.5858H97.3186ZM86.0882 82.5858V90.8822H77.8542V82.5858H86.0882ZM74.8598 82.5858V90.8822H66.6248V82.5858H74.8598ZM63.6304 82.5858V90.8822H55.3964V82.5858H63.6304ZM52.402 82.5858V90.8822H44.1679V82.5858H52.402ZM41.1735 82.5858V90.8822H32.9385V82.5858H41.1735ZM29.9441 82.5858V90.8822H21.7091V82.5858H29.9441ZM18.7147 82.5858V90.8822H10.4807V82.5858H18.7147ZM10.4807 79.569H18.7147V71.2727H10.4807V79.569ZM21.7091 79.569H29.9441V71.2727H21.7091V79.569ZM32.9385 79.569H41.1735V71.2727H32.9385V79.569ZM44.1679 79.569H52.402V71.2727H44.1679V79.569ZM55.3964 79.569H63.6304V71.2727H55.3964V79.569ZM66.6248 79.569H74.8598V71.2727H66.6248V79.569ZM77.8542 79.569H86.0882V71.2727H77.8542V79.569ZM89.0826 79.569H97.3186V71.2727H89.0826V79.569ZM100.313 79.569H108.547V71.2727H100.313V79.569ZM111.541 79.569H119.775V71.2727H111.541V79.569ZM122.77 79.569H131.006V71.2727H122.77V79.569ZM131.006 59.9596V68.2559H122.77V59.9596H131.006ZM119.775 59.9596V68.2559H111.541V59.9596H119.775ZM108.547 59.9596V68.2559H100.313V59.9596H108.547ZM97.3186 59.9596V68.2559H89.0826V59.9596H97.3186ZM86.0882 59.9596V68.2559H77.8542V59.9596H86.0882ZM74.8598 59.9596V68.2559H66.6248V59.9596H74.8598ZM63.6304 59.9596V68.2559H55.3964V59.9596H63.6304ZM52.402 59.9596V68.2559H44.1679V59.9596H52.402ZM41.1735 59.9596V68.2559H32.9385V59.9596H41.1735ZM29.9441 59.9596V68.2559H21.7091V59.9596H29.9441ZM18.7147 59.9596V68.2559H10.4807V59.9596H18.7147ZM10.4807 56.9428H18.7147V48.2694H10.4807V56.9428ZM21.7091 56.9428H29.9441V48.2694H21.7091V56.9428ZM32.9385 56.9428H41.1735V48.2694H32.9385V56.9428ZM44.1679 56.9428H52.402V48.2694H44.1679V56.9428ZM55.3964 56.9428H63.6304V48.2694H55.3964V56.9428ZM66.6248 56.9428H74.8598V48.2694H66.6248V56.9428ZM77.8542 56.9428H86.0882V48.2694H77.8542V56.9428ZM89.0826 56.9428H97.3186V48.2694H89.0826V56.9428ZM100.313 56.9428H108.547V48.2694H100.313V56.9428ZM111.541 56.9428H119.775V48.2694H111.541V56.9428ZM122.77 56.9428H131.006V48.2694H122.77V56.9428ZM131.006 36.9562V45.2525H122.77V36.9562H131.006ZM119.775 36.9562V45.2525H111.541V36.9562H119.775ZM108.547 36.9562V45.2525H100.313V36.9562H108.547ZM97.3186 36.9562V45.2525H89.0826V36.9562H97.3186ZM86.0882 36.9562V45.2525H77.8542V36.9562H86.0882ZM74.8598 36.9562V45.2525H66.6248V36.9562H74.8598ZM63.6304 36.9562V45.2525H55.3964V36.9562H63.6304ZM52.402 36.9562V45.2525H44.1679V36.9562H52.402ZM41.1735 36.9562V45.2525H32.9385V36.9562H41.1735ZM29.9441 36.9562V45.2525H21.7091V36.9562H29.9441ZM18.7147 36.9562V45.2525H10.4807V36.9562H18.7147ZM10.4807 33.9394H18.7147V25.6431H10.4807V33.9394ZM21.7091 33.9394H29.9441V25.6431H21.7091V33.9394ZM32.9385 33.9394H41.1735V25.6431H32.9385V33.9394ZM44.1679 33.9394H52.402V25.6431H44.1679V33.9394ZM55.3964 33.9394H63.6304V25.6431H55.3964V33.9394ZM66.6248 33.9394H74.8598V25.6431H66.6248V33.9394ZM77.8542 33.9394H86.0882V25.6431H77.8542V33.9394ZM89.0826 33.9394H97.3186V25.6431H89.0826V33.9394ZM100.313 33.9394H108.547V25.6431H100.313V33.9394ZM111.541 33.9394H119.775V25.6431H111.541V33.9394ZM122.77 33.9394H131.006V25.6431H122.77V33.9394ZM131.006 14.33V22.6263H122.77V14.33H131.006ZM119.775 14.33V22.6263H111.541V14.33H119.775ZM108.547 14.33V22.6263H100.313V14.33H108.547ZM97.3186 14.33V22.6263H89.0826V14.33H97.3186ZM86.0882 14.33V22.6263H77.8542V14.33H86.0882ZM74.8598 14.33V22.6263H66.6248V14.33H74.8598ZM63.6304 14.33V22.6263H55.3964V14.33H63.6304ZM52.402 14.33V22.6263H44.1679V14.33H52.402ZM41.1735 14.33V22.6263H32.9385V14.33H41.1735ZM29.9441 14.33V22.6263H21.7091V14.33H29.9441ZM18.7147 14.33V22.6263H10.4807V14.33H18.7147ZM10.4807 11.3131H18.7147V3.01683H10.4807V11.3131ZM21.7091 11.3131H29.9441V3.01683H21.7091V11.3131ZM32.9385 11.3131H41.1735V3.01683H32.9385V11.3131ZM44.1679 11.3131H52.402V3.01683H44.1679V11.3131ZM55.3964 11.3131H63.6304V3.01683H55.3964V11.3131ZM66.6248 11.3131H74.8598V3.01683H66.6248V11.3131ZM77.8542 11.3131H86.0882V3.01683H77.8542V11.3131ZM89.0826 11.3131H97.3186V3.01683H89.0826V11.3131ZM100.313 11.3131H108.547V3.01683H100.313V11.3131ZM111.541 11.3131H119.775V3.01683H111.541V11.3131ZM122.77 11.3131H131.006V3.01683H122.77V11.3131Z" fill="url(#paint0_linear)" style="mix-blend-mode:screen"/>
<defs>
<linearGradient id="paint0_linear" x1="67.0001" y1="0" x2="67.0001" y2="83.9057" gradientUnits="userSpaceOnUse">
<stop stop-color="white"/>
<stop offset="0.09375" stop-color="white"/>
<stop offset="0.338542" stop-color="#56CCF2"/>
<stop offset="0.822917" stop-color="#56CCF2" stop-opacity="0.15"/>
<stop offset="1" stop-color="#56CCF2" stop-opacity="0"/>
</linearGradient>
</defs>
</svg>
